<?xml version="1.0" standalone="no"?>
<!DOCTYPE svg PUBLIC "-//W3C//DTD SVG 1.1//EN" "http://www.w3.org/Graphics/SVG/1.1/DTD/svg11.dtd" >
<svg xmlns="http://www.w3.org/2000/svg" xmlns:xlink="http://www.w3.org/1999/xlink" version="1.1">
<metadata>
Created by FontForge 20170731 at Fri Nov  5 03:01:01 2021
 By Aleksey,,,
Copyright weavermedia 2021
</metadata>
<defs>
<font id="Deluge-LED" horiz-adv-x="1365" >
  <font-face 
    font-family="Deluge LED"
    font-weight="400"
    font-stretch="normal"
    units-per-em="2048"
    panose-1="0 0 4 0 0 0 0 0 0 0"
    ascent="2048"
    descent="0"
    x-height="1137"
    cap-height="1024"
    bbox="-227 0 1575 2048"
    underline-thickness="102"
    underline-position="51"
    unicode-range="U+0020-007A"
  />
<missing-glyph horiz-adv-x="1802" 
d="M1506 50l-719 954l-718 -954h1437zM50 69l718 955l-718 954v-1909v0zM1525 69v1909l-719 -954l719 -955v0zM787 1043l719 955h-1437l718 -955v0zM0 0v2048h1575v-2048h-1575z" />
    <glyph glyph-name=".notdef" horiz-adv-x="1802" 
d="M1506 50l-719 954l-718 -954h1437zM50 69l718 955l-718 954v-1909v0zM1525 69v1909l-719 -954l719 -955v0zM787 1043l719 955h-1437l718 -955v0zM0 0v2048h1575v-2048h-1575z" />
    <glyph glyph-name=".null" horiz-adv-x="0" 
 />
    <glyph glyph-name="nonmarkingreturn" horiz-adv-x="682" 
 />
    <glyph glyph-name="space" unicode=" " 
 />
    <glyph glyph-name="exclam" unicode="!" 
d="M1137 0v227h228v-227h-228zM1024 1024l-114 113v683l114 114l113 -114v-683l-113 -113v0z" />
    <glyph glyph-name="numbersign" unicode="#" 
d="M-227 0v227h227v-227h-227z" />
    <glyph glyph-name="quotesingle" unicode="'" 
d="M113 1024l-113 113v683l113 114l114 -114v-683l-114 -113v0z" />
    <glyph glyph-name="comma" unicode="," 
d="M1137 0v227h228v-227h-228z" />
    <glyph glyph-name="hyphen" unicode="-" 
d="M227 910l-114 114l114 113h683l114 -113l-114 -114h-683z" />
    <glyph glyph-name="period" unicode="." 
d="M1137 0v227h228v-227h-228z" />
    <glyph glyph-name="zero" unicode="0" 
d="M227 0l-227 227v683l113 114l114 -113v-684h683v683h1l113 114l113 -113v-684l-227 -227h-683zM113 1024l-113 112v684l227 228h683l227 -228v-683h-1l-112 -113l-114 112v684h-683v-683h-1l-113 -113v0z" />
    <glyph glyph-name="one" unicode="1" 
d="M1024 113l-114 114v683h1l113 114l113 -113v-684l-113 -114v0zM1024 1024l-114 112v684l114 114l113 -114v-683h-1l-112 -113v0z" />
    <glyph glyph-name="two" unicode="2" 
d="M227 0l-227 227v683l227 227h683v683h-683l-114 114l114 114h683l227 -228v-683l-227 -227h-683v-683h683l114 -114l-114 -113h-683z" />
    <glyph glyph-name="three" unicode="3" 
d="M227 0l-114 113l114 114h683v683h-683l-114 114l114 113h683v683h-683l-114 114l114 114h683l227 -228v-683h-1l-112 -113l113 -114v-683l-227 -227h-683z" />
    <glyph glyph-name="four" unicode="4" 
d="M1024 113l-114 114v683h-683l-227 227v683l113 114l114 -114v-683h683v683l114 114l113 -114v-683h-1l-112 -113l113 -114v-683l-113 -114v0z" />
    <glyph glyph-name="five" unicode="5" 
d="M227 0l-114 113l114 114h683v683h-683l-227 227v683l227 228h683l114 -114l-114 -114h-683v-683h683l227 -227v-683l-227 -227h-683z" />
    <glyph glyph-name="six" unicode="6" 
d="M910 227v683h-683v-683h683zM227 0l-227 227v683l113 114l-113 113v683l227 228h683l114 -114l-114 -114h-683v-683h683l227 -227v-683l-227 -227h-683z" />
    <glyph glyph-name="seven" unicode="7" 
d="M1024 113l-114 114v683h1l113 114l113 -113v-684l-113 -114v0zM1024 1024l-114 112v684h-683l-114 114l114 114h683l227 -228v-683h-1l-112 -113v0z" />
    <glyph glyph-name="eight" unicode="8" 
d="M910 227v683h-683v-683h683zM910 1137v683h-683v-683h683zM227 0l-227 227v683l113 114l-113 113v683l227 228h683l227 -228v-683h-1l-112 -113l113 -114v-683l-227 -227h-683z" />
    <glyph glyph-name="nine" unicode="9" 
d="M910 1137v683h-683v-683h683zM227 0l-114 113l114 114h683v683h-683l-227 227v683l227 228h683l227 -228v-683h-1l-112 -113l113 -114v-683l-227 -227h-683z" />
    <glyph glyph-name="A" unicode="A" 
d="M910 1137v683h-683v-683h683zM113 113l-113 114v683l113 114l-113 113v683l227 228h683l227 -228v-683h-1l-112 -113l113 -114v-683l-113 -114l-114 114v683h-683v-683l-114 -114v0z" />
    <glyph glyph-name="B" unicode="B" 
d="M910 227v683h-683v-683h683zM227 0l-227 227v683l113 114l-113 113v683l113 114l114 -114v-683h683l227 -227v-683l-227 -227h-683z" />
    <glyph glyph-name="C" unicode="C" 
d="M227 0l-227 227v683l113 114l114 -113v-684h683l114 -114l-114 -113h-683zM113 1024l-113 112v684l227 228h683l114 -114l-114 -114h-683v-683h-1l-113 -113v0z" />
    <glyph glyph-name="D" unicode="D" 
d="M910 227v683h-683v-683h683zM227 0l-227 227v683l227 227h683v683l114 114l113 -114v-683h-1l-112 -113l113 -114v-683l-227 -227h-683z" />
    <glyph glyph-name="E" unicode="E" 
d="M227 0l-227 227v683l113 114l-113 113v683l227 228h683l114 -114l-114 -114h-683v-683h683l114 -113l-114 -114h-683v-683h683l114 -114l-114 -113h-683z" />
    <glyph glyph-name="F" unicode="F" 
d="M113 113l-113 114v683l113 114l-113 113v683l227 228h683l114 -114l-114 -114h-683v-683h683l114 -113l-114 -114h-683v-683l-114 -114v0z" />
    <glyph glyph-name="G" unicode="G" 
d="M227 0l-227 227v683l113 114l114 -113v-684h683v683l114 114l113 -114v-683l-227 -227h-683zM113 1024l-113 112v684l227 228h683l114 -114l-114 -114h-683v-683h-1l-113 -113v0z" />
    <glyph glyph-name="H" unicode="H" 
d="M113 113l-113 114v683l113 114l-113 113v683l113 114l114 -114v-683h683v683l114 114l113 -114v-683h-1l-112 -113l113 -114v-683l-113 -114l-114 114v683h-683v-683l-114 -114v0z" />
    <glyph glyph-name="I" unicode="I" 
d="M113 113l-113 114v683l113 114l114 -114v-683l-114 -114v0z" />
    <glyph glyph-name="J" unicode="J" 
d="M227 0l-114 113l114 114h683v683h1l113 114l113 -113v-684l-227 -227h-683zM1024 1024l-114 112v684l114 114l113 -114v-683h-1l-112 -113v0z" />
    <glyph glyph-name="K" unicode="K" 
d="M113 113l-113 114v683l113 114l-113 113v683l227 228h683l114 -114l-114 -114h-683v-683h683l227 -227v-683l-113 -114l-114 114v683h-683v-683l-114 -114v0z" />
    <glyph glyph-name="L" unicode="L" 
d="M227 0l-227 227v683l113 114l114 -113v-684h683l114 -114l-114 -113h-683zM113 1024l-113 112v684l113 114l114 -114v-683h-1l-113 -113v0z" />
    <glyph glyph-name="M" unicode="M" 
d="M113 113l-113 114v683l227 227h683l227 -227v-683l-113 -114l-114 114v683h-683v-683l-114 -114v0zM227 1820l-114 114l114 114h683l114 -114l-114 -114h-683z" />
    <glyph glyph-name="N" unicode="N" 
d="M113 113l-113 114v683l227 227h683l227 -227v-683l-113 -114l-114 114v683h-683v-683l-114 -114v0z" />
    <glyph glyph-name="O" unicode="O" 
d="M910 227v683h-683v-683h683zM227 0l-227 227v683l227 227h683l227 -227v-683l-227 -227h-683z" />
    <glyph glyph-name="P" unicode="P" 
d="M910 1137v683h-683v-683h683zM113 113l-113 114v683l113 114l-113 113v683l227 228h683l227 -228v-683l-227 -227h-683v-683l-114 -114v0z" />
    <glyph glyph-name="Q" unicode="Q" 
d="M910 1137v683h-683v-683h683zM1024 113l-114 114v683h-683l-227 227v683l227 228h683l227 -228v-683h-1l-112 -113l113 -114v-683l-113 -114v0z" />
    <glyph glyph-name="R" unicode="R" 
d="M113 113l-113 114v683l227 227h683l114 -113l-114 -114h-683v-683l-114 -114v0z" />
    <glyph glyph-name="S" unicode="S" 
d="M227 0l-114 113l114 114h683v683h-683l-227 227v683l227 228h683l114 -114l-114 -114h-683v-683h683l227 -227v-683l-227 -227h-683z" />
    <glyph glyph-name="T" unicode="T" 
d="M227 0l-227 227v683l113 114l-113 113v683l113 114l114 -114v-683h683l114 -113l-114 -114h-683v-683h683l114 -114l-114 -113h-683z" />
    <glyph glyph-name="U" unicode="U" 
d="M227 0l-227 227v683l113 114l-113 113v683l113 114l114 -114v-1593h683v1593l114 114l113 -114v-683h-1l-112 -113l113 -114v-683l-227 -227h-683z" />
    <glyph glyph-name="V" unicode="V" 
d="M113 113l-113 114v683l113 114l-113 113v683l113 114l114 -114v-683h683v683l114 114l113 -114v-683l-227 -227h-683v-683l-114 -114v0z" />
    <glyph glyph-name="W" unicode="W" 
d="M227 0l-227 227v683l113 114l114 -114v-683h683v683l114 114l113 -114v-683l-227 -227h-683zM227 1820l-114 114l114 114h683l114 -114l-114 -114h-683z" />
    <glyph glyph-name="X" unicode="X" 
d="M227 0l-114 113l114 114h683l114 -114l-114 -113h-683zM227 910l-114 114l114 113h683l114 -113l-114 -114h-683zM227 1820l-114 114l114 114h683l114 -114l-114 -114h-683z" />
    <glyph glyph-name="Y" unicode="Y" 
d="M227 0l-114 113l114 114h683v683h-683l-227 227v683l113 114l114 -114v-683h683v683l114 114l113 -114v-683h-1l-112 -113l113 -114v-683l-227 -227h-683z" />
    <glyph glyph-name="Z" unicode="Z" 
d="M227 0l-227 227v683l227 227h683v683h-683l-114 114l114 114h683l227 -228v-683l-227 -227h-683v-683h683l114 -114l-114 -113h-683z" />
    <glyph glyph-name="asciicircum" unicode="^" 
d="M113 1024l-113 113v683l227 228h683l227 -228v-683l-113 -113l-114 113v683h-683v-683l-114 -113v0z" />
    <glyph glyph-name="underscore" unicode="_" 
d="M227 0l-114 113l114 114h683l114 -114l-114 -113h-683z" />
    <glyph glyph-name="a" unicode="a" 
d="M910 1137v683h-683v-683h683zM113 113l-113 114v683l113 114l-113 113v683l227 228h683l227 -228v-683h-1l-112 -113l113 -114v-683l-113 -114l-114 114v683h-683v-683l-114 -114v0z" />
    <glyph glyph-name="b" unicode="b" 
d="M910 227v683h-683v-683h683zM227 0l-227 227v683l113 114l-113 113v683l113 114l114 -114v-683h683l227 -227v-683l-227 -227h-683z" />
    <glyph glyph-name="c" unicode="c" 
d="M227 0l-227 227v683l113 114l114 -113v-684h683l114 -114l-114 -113h-683zM113 1024l-113 112v684l227 228h683l114 -114l-114 -114h-683v-683h-1l-113 -113v0z" />
    <glyph glyph-name="d" unicode="d" 
d="M910 227v683h-683v-683h683zM227 0l-227 227v683l227 227h683v683l114 114l113 -114v-683h-1l-112 -113l113 -114v-683l-227 -227h-683z" />
    <glyph glyph-name="e" unicode="e" 
d="M227 0l-227 227v683l113 114l-113 113v683l227 228h683l114 -114l-114 -114h-683v-683h683l114 -113l-114 -114h-683v-683h683l114 -114l-114 -113h-683z" />
    <glyph glyph-name="f" unicode="f" 
d="M113 113l-113 114v683l113 114l-113 113v683l227 228h683l114 -114l-114 -114h-683v-683h683l114 -113l-114 -114h-683v-683l-114 -114v0z" />
    <glyph glyph-name="g" unicode="g" 
d="M227 0l-227 227v683l113 114l114 -113v-684h683v683l114 114l113 -114v-683l-227 -227h-683zM113 1024l-113 112v684l227 228h683l114 -114l-114 -114h-683v-683h-1l-113 -113v0z" />
    <glyph glyph-name="h" unicode="h" 
d="M113 113l-113 114v683l113 114l-113 113v683l113 114l114 -114v-683h683v683l114 114l113 -114v-683h-1l-112 -113l113 -114v-683l-113 -114l-114 114v683h-683v-683l-114 -114v0z" />
    <glyph glyph-name="i" unicode="i" 
d="M113 113l-113 114v683l113 114l114 -114v-683l-114 -114v0z" />
    <glyph glyph-name="j" unicode="j" 
d="M227 0l-114 113l114 114h683v683h1l113 114l113 -113v-684l-227 -227h-683zM1024 1024l-114 112v684l114 114l113 -114v-683h-1l-112 -113v0z" />
    <glyph glyph-name="k" unicode="k" 
d="M113 113l-113 114v683l113 114l-113 113v683l227 228h683l114 -114l-114 -114h-683v-683h683l227 -227v-683l-113 -114l-114 114v683h-683v-683l-114 -114v0z" />
    <glyph glyph-name="l" unicode="l" 
d="M227 0l-227 227v683l113 114l114 -113v-684h683l114 -114l-114 -113h-683zM113 1024l-113 112v684l113 114l114 -114v-683h-1l-113 -113v0z" />
    <glyph glyph-name="m" unicode="m" 
d="M113 113l-113 114v683l227 227h683l227 -227v-683l-113 -114l-114 114v683h-683v-683l-114 -114v0zM227 1820l-114 114l114 114h683l114 -114l-114 -114h-683z" />
    <glyph glyph-name="n" unicode="n" 
d="M113 113l-113 114v683l227 227h683l227 -227v-683l-113 -114l-114 114v683h-683v-683l-114 -114v0z" />
    <glyph glyph-name="o" unicode="o" 
d="M910 227v683h-683v-683h683zM227 0l-227 227v683l227 227h683l227 -227v-683l-227 -227h-683z" />
    <glyph glyph-name="p" unicode="p" 
d="M910 1137v683h-683v-683h683zM113 113l-113 114v683l113 114l-113 113v683l227 228h683l227 -228v-683l-227 -227h-683v-683l-114 -114v0z" />
    <glyph glyph-name="q" unicode="q" 
d="M910 1137v683h-683v-683h683zM1024 113l-114 114v683h-683l-227 227v683l227 228h683l227 -228v-683h-1l-112 -113l113 -114v-683l-113 -114v0z" />
    <glyph glyph-name="r" unicode="r" 
d="M113 113l-113 114v683l227 227h683l114 -113l-114 -114h-683v-683l-114 -114v0z" />
    <glyph glyph-name="s" unicode="s" 
d="M227 0l-114 113l114 114h683v683h-683l-227 227v683l227 228h683l114 -114l-114 -114h-683v-683h683l227 -227v-683l-227 -227h-683z" />
    <glyph glyph-name="t" unicode="t" 
d="M227 0l-227 227v683l113 114l-113 113v683l113 114l114 -114v-683h683l114 -113l-114 -114h-683v-683h683l114 -114l-114 -113h-683z" />
    <glyph glyph-name="u" unicode="u" 
d="M227 0l-227 227v683l113 114l-113 113v683l113 114l114 -114v-1593h683v1593l114 114l113 -114v-683h-1l-112 -113l113 -114v-683l-227 -227h-683z" />
    <glyph glyph-name="v" unicode="v" 
d="M113 113l-113 114v683l113 114l-113 113v683l113 114l114 -114v-683h683v683l114 114l113 -114v-683l-227 -227h-683v-683l-114 -114v0z" />
    <glyph glyph-name="w" unicode="w" 
d="M227 0l-227 227v683l113 114l114 -114v-683h683v683l114 114l113 -114v-683l-227 -227h-683zM227 1820l-114 114l114 114h683l114 -114l-114 -114h-683z" />
    <glyph glyph-name="x" unicode="x" 
d="M227 0l-114 113l114 114h683l114 -114l-114 -113h-683zM227 910l-114 114l114 113h683l114 -113l-114 -114h-683zM227 1820l-114 114l114 114h683l114 -114l-114 -114h-683z" />
    <glyph glyph-name="y" unicode="y" 
d="M227 0l-114 113l114 114h683v683h-683l-227 227v683l113 114l114 -114v-683h683v683l114 114l113 -114v-683h-1l-112 -113l113 -114v-683l-227 -227h-683z" />
    <glyph glyph-name="z" unicode="z" 
d="M227 0l-227 227v683l227 227h683v683h-683l-114 114l114 114h683l227 -228v-683l-227 -227h-683v-683h683l114 -114l-114 -113h-683z" />
  </font>
</defs>
</svg>
